<svg width="2183" height="743" viewBox="0 0 2183 743" fill="none" xmlns="http://www.w3.org/2000/svg">
<path fill-rule="evenodd" clip-rule="evenodd" d="M586.594 128.8C575.126 138.343 556.742 147.943 532.849 156.4C480.453 174.8 407.93 185.657 330.179 185.657C252.427 185.657 179.905 174.857 127.508 156.4C103.559 147.943 85.2314 138.343 73.7627 128.857C65.892 122.286 63.4184 118 63.4184 116.286C63.4184 114.514 65.892 110.286 73.7627 103.771C85.2314 94.2286 103.615 84.6286 127.508 76.1714C179.905 57.7714 252.427 46.9143 330.179 46.9143C407.93 46.9143 480.453 57.7143 532.849 76.1714C556.798 84.6286 575.126 94.2286 586.594 103.714C594.465 110.286 596.939 114.571 596.939 116.286C596.939 118 594.465 122.286 586.594 128.8ZM46.2715 348.842V449.429C75.4493 480.686 153.931 518.743 249.785 530.114C390.333 546.743 523.404 515.543 613.748 453.314L614.086 350.457C517.838 408 382.35 432.171 245.344 415.886C160.547 405.89 88.3316 379.909 46.2715 348.842ZM249.785 366.514C153.931 355.2 75.5055 317.143 46.2715 285.943V285.886C46.3084 249.162 46.3647 212.438 46.4402 175.714C104.009 209.714 209.532 232.571 330.179 232.571C451.331 232.571 557.192 209.6 614.704 175.314L614.31 289.371C523.966 351.886 390.614 383.2 249.785 366.514ZM46.3841 512.442C88.4442 543.509 160.659 569.433 245.344 579.486C382.069 595.657 517.332 571.543 613.467 514.343C613.467 514.343 613.523 524.343 613.467 535.714C613.411 547.086 623.587 556.286 636.18 556.286C648.773 556.343 659.005 547.2 659.061 535.886C659.117 524.571 660.354 129.314 660.354 129.314C660.373 127.437 660.108 125.567 659.567 123.771C659.996 121.3 660.203 118.795 660.185 116.286C660.185 52.0571 512.441 0 330.179 0C147.916 0 0.17175 52.0571 0.115532 116.286C0.122834 117.66 0.197887 119.033 0.340408 120.4C0.0187407 239.066 -0.0749581 357.733 0.0593126 476.4L0.396628 597.029V600L1.23992 602.857C24.9644 682.571 148.928 742.857 336.419 742.857C448.97 742.857 509.349 725.086 568.604 695.314C585.807 686.629 600.705 676.514 613.804 666.8C622.575 660.286 626.791 656.686 635.786 648.686C644.107 641.143 643.151 627.429 635.786 619.029C628.365 610.514 615.547 608.686 607.227 616.171C600.399 622.286 595.842 625.64 590.043 629.907C589.014 630.664 587.946 631.45 586.819 632.286C575.575 640.629 564.107 647.029 549.04 654.629C495.351 681.6 425.526 695.314 336.419 695.314C175.27 695.314 66.2693 650.237 46.6002 593.618L46.3841 512.442ZM546.205 279.336C549.946 283.064 554.989 285.131 560.228 285.086H560.284C571.303 285.086 580.298 276.229 580.298 265.2C580.298 254.229 571.303 245.371 560.284 245.371C549.265 245.371 540.27 254.229 540.27 265.2C540.329 270.525 542.463 275.608 546.205 279.336ZM546.205 442.936C549.946 446.664 554.989 448.731 560.228 448.686H560.284C571.303 448.686 580.298 439.771 580.298 428.8C580.298 417.829 571.303 408.914 560.284 408.914C549.265 408.914 540.27 417.829 540.27 428.8C540.329 434.125 542.463 439.208 546.205 442.936Z" fill="#1F325A"/>
<path d="M560.228 614.4C557.629 614.423 555.051 613.925 552.642 612.935C550.232 611.945 548.038 610.482 546.185 608.63C544.332 606.778 542.855 604.573 541.84 602.142C540.826 599.71 540.292 597.099 540.27 594.457C540.27 583.486 549.265 574.571 560.284 574.571C571.303 574.571 580.298 583.486 580.298 594.457C580.298 605.429 571.303 614.343 560.284 614.343L560.228 614.4Z" fill="#1F325A"/>
<path d="M711.5 307V127.75H775C838.667 127.75 870.5 156.875 870.5 215.125C870.5 243.042 861.792 265.333 844.375 282C827.042 298.667 803.917 307 775 307H711.5ZM751.875 160.625V274.25H771.875C789.375 274.25 803.083 269 813 258.5C823 248 828 233.708 828 215.625C828 198.542 823.042 185.125 813.125 175.375C803.292 165.542 789.458 160.625 771.625 160.625H751.875ZM1053.88 307H1009.88L997.125 267.125H933.375L920.75 307H877L942.25 127.75H990.125L1053.88 307ZM987.875 236.125L968.625 175.875C967.208 171.375 966.208 166 965.625 159.75H964.625C964.208 165 963.167 170.208 961.5 175.375L942 236.125H987.875ZM1184.12 160.625H1133V307H1092.5V160.625H1041.62V127.75H1184.12V160.625ZM1347.88 307H1303.88L1291.12 267.125H1227.38L1214.75 307H1171L1236.25 127.75H1284.12L1347.88 307ZM1281.88 236.125L1262.62 175.875C1261.21 171.375 1260.21 166 1259.62 159.75H1258.62C1258.21 165 1257.17 170.208 1255.5 175.375L1236 236.125H1281.88ZM858.625 636C841.125 646.083 819.375 651.125 793.375 651.125C764.542 651.125 741.792 643.167 725.125 627.25C708.542 611.25 700.25 589.25 700.25 561.25C700.25 533.083 709.333 510.125 727.5 492.375C745.667 474.625 769.833 465.75 800 465.75C819 465.75 835.75 468.375 850.25 473.625V511.5C836.417 503.5 819.5 499.5 799.5 499.5C782.75 499.5 769.083 504.958 758.5 515.875C748 526.708 742.75 541.208 742.75 559.375C742.75 577.792 747.458 592.042 756.875 602.125C766.375 612.208 779.167 617.25 795.25 617.25C804.917 617.25 812.583 615.875 818.25 613.125V578.125H782.375V545.875H858.625V636ZM1001 648H893.5V468.75H996.875V501.625H933.875V541.5H992.5V574.25H933.875V615.25H1001V648ZM1191 648H1150.25L1076.38 535.375C1072.04 528.792 1069.04 523.833 1067.38 520.5H1066.88C1067.54 526.833 1067.88 536.5 1067.88 549.5V648H1029.75V468.75H1073.25L1144.38 577.875C1147.62 582.792 1150.62 587.667 1153.38 592.5H1153.88C1153.21 588.333 1152.88 580.125 1152.88 567.875V468.75H1191V648ZM1339.5 648H1232V468.75H1335.38V501.625H1272.38V541.5H1331V574.25H1272.38V615.25H1339.5V648ZM1518.62 648H1472.25L1444.38 601.875C1442.29 598.375 1440.29 595.25 1438.38 592.5C1436.46 589.75 1434.5 587.417 1432.5 585.5C1430.58 583.5 1428.54 582 1426.38 581C1424.29 579.917 1422 579.375 1419.5 579.375H1408.62V648H1368.25V468.75H1432.25C1475.75 468.75 1497.5 485 1497.5 517.5C1497.5 523.75 1496.54 529.542 1494.62 534.875C1492.71 540.125 1490 544.875 1486.5 549.125C1483 553.375 1478.75 557.042 1473.75 560.125C1468.83 563.208 1463.33 565.625 1457.25 567.375V567.875C1459.92 568.708 1462.5 570.083 1465 572C1467.5 573.833 1469.92 576 1472.25 578.5C1474.58 581 1476.79 583.708 1478.88 586.625C1481.04 589.458 1483 592.25 1484.75 595L1518.62 648ZM1408.62 499V548.875H1426.12C1434.79 548.875 1441.75 546.375 1447 541.375C1452.33 536.292 1455 530 1455 522.5C1455 506.833 1445.62 499 1426.88 499H1408.62ZM1693.12 648H1649.12L1636.38 608.125H1572.62L1560 648H1516.25L1581.5 468.75H1629.38L1693.12 648ZM1627.12 577.125L1607.88 516.875C1606.46 512.375 1605.46 507 1604.88 500.75H1603.88C1603.46 506 1602.42 511.208 1600.75 516.375L1581.25 577.125H1627.12ZM1823.38 501.625H1772.25V648H1731.75V501.625H1680.88V468.75H1823.38V501.625ZM1913.75 651.125C1888.08 651.125 1867.17 642.792 1851 626.125C1834.83 609.375 1826.75 587.583 1826.75 560.75C1826.75 532.417 1834.96 509.5 1851.38 492C1867.79 474.5 1889.54 465.75 1916.62 465.75C1942.21 465.75 1962.88 474.125 1978.62 490.875C1994.46 507.625 2002.38 529.708 2002.38 557.125C2002.38 585.292 1994.17 608 1977.75 625.25C1961.42 642.5 1940.08 651.125 1913.75 651.125ZM1915.5 500.5C1901.33 500.5 1890.08 505.833 1881.75 516.5C1873.42 527.083 1869.25 541.125 1869.25 558.625C1869.25 576.375 1873.42 590.417 1881.75 600.75C1890.08 611.083 1901 616.25 1914.5 616.25C1928.42 616.25 1939.46 611.25 1947.62 601.25C1955.79 591.167 1959.88 577.208 1959.88 559.375C1959.88 540.792 1955.92 526.333 1948 516C1940.08 505.667 1929.25 500.5 1915.5 500.5ZM2182.62 648H2136.25L2108.38 601.875C2106.29 598.375 2104.29 595.25 2102.38 592.5C2100.46 589.75 2098.5 587.417 2096.5 585.5C2094.58 583.5 2092.54 582 2090.38 581C2088.29 579.917 2086 579.375 2083.5 579.375H2072.62V648H2032.25V468.75H2096.25C2139.75 468.75 2161.5 485 2161.5 517.5C2161.5 523.75 2160.54 529.542 2158.62 534.875C2156.71 540.125 2154 544.875 2150.5 549.125C2147 553.375 2142.75 557.042 2137.75 560.125C2132.83 563.208 2127.33 565.625 2121.25 567.375V567.875C2123.92 568.708 2126.5 570.083 2129 572C2131.5 573.833 2133.92 576 2136.25 578.5C2138.58 581 2140.79 583.708 2142.88 586.625C2145.04 589.458 2147 592.25 2148.75 595L2182.62 648ZM2072.62 499V548.875H2090.12C2098.79 548.875 2105.75 546.375 2111 541.375C2116.33 536.292 2119 530 2119 522.5C2119 506.833 2109.62 499 2090.88 499H2072.62Z" fill="#1F325A"/>
<circle cx="560.5" cy="594.5" r="20.5" fill="#00C3A3"/>
<circle cx="560.5" cy="429.5" r="20.5" fill="#00C3A3"/>
<circle cx="560.5" cy="264.5" r="20.5" fill="#00C3A3"/>
</svg>
